<?xml version="1.0" standalone="no"?>
<!DOCTYPE svg PUBLIC "-//W3C//DTD SVG 20010904//EN"
 "http://www.w3.org/TR/2001/REC-SVG-20010904/DTD/svg10.dtd">
<svg version="1.0" xmlns="http://www.w3.org/2000/svg"
 width="256.000000pt" height="256.000000pt" viewBox="0 0 256.000000 256.000000"
 preserveAspectRatio="xMidYMid meet">

<g transform="translate(0.000000,256.000000) scale(0.100000,-0.100000)"
fill="#000000" stroke="none">
<path d="M161 2543 c-24 -9 -63 -35 -86 -58 -80 -79 -75 -5 -75 -1205 0 -1199
-5 -1126 75 -1205 79 -80 6 -75 1205 -75 1199 0 1126 -5 1205 75 80 79 75 6
75 1205 0 1199 5 1126 -75 1205 -79 80 -5 75 -1209 74 -943 0 -1076 -2 -1115
-16z m828 -332 c26 -26 41 -83 41 -153 l0 -58 33 0 c17 0 59 -8 92 -18 l60
-18 3 -51 3 -51 -58 -12 c-32 -7 -77 -20 -100 -30 -39 -17 -43 -22 -43 -53 l0
-34 74 -5 c173 -11 212 -103 137 -327 -17 -52 -30 -96 -28 -98 5 -5 123 13
190 28 44 10 47 13 47 43 0 30 -5 34 -81 71 -44 22 -83 43 -85 46 -2 4 22 22
53 39 62 35 133 102 133 125 0 8 -4 15 -9 15 -11 0 -135 97 -138 108 -2 4 23
18 54 31 31 14 69 36 84 49 28 23 29 26 29 122 0 65 -4 100 -11 102 -11 4 -4
51 17 127 7 23 92 8 121 -21 22 -23 25 -34 30 -150 l6 -126 53 -41 c52 -40 78
-86 57 -100 -5 -3 -37 -28 -71 -54 -72 -56 -82 -87 -29 -87 19 0 59 -5 91 -11
l57 -12 -3 -56 -3 -56 -87 -3 -88 -3 0 -27 c0 -54 1 -54 196 -38 193 15 219
11 263 -33 44 -44 24 -163 -80 -476 -59 -178 -62 -185 -87 -185 -40 0 -226 94
-256 130 -25 30 -25 31 -30 8 -3 -13 -8 -108 -11 -213 -3 -104 -12 -230 -18
-280 l-12 -90 -52 -3 -51 -3 -6 63 c-3 35 -10 223 -16 418 -6 196 -13 372 -17
393 l-6 37 -106 0 c-110 0 -151 12 -151 46 0 23 -11 17 -47 -26 -21 -24 -49
-44 -74 -51 -22 -7 -38 -17 -36 -23 4 -11 23 -11 147 -6 30 1 70 -1 88 -5 l32
-7 0 -68 0 -67 -105 -5 c-75 -4 -113 -11 -131 -23 l-27 -17 5 -132 c6 -161 -5
-251 -42 -333 -27 -60 -31 -63 -63 -63 -23 0 -37 6 -41 16 -3 9 -6 121 -6 250
0 216 -1 234 -17 234 -10 0 -71 -11 -137 -25 -65 -14 -151 -28 -191 -32 l-74
-6 -16 39 c-9 21 -15 50 -13 64 3 24 7 25 87 33 136 12 234 43 314 99 35 25
37 53 2 44 -14 -3 -36 -9 -50 -12 -22 -6 -27 -1 -44 38 -28 67 -67 185 -86
268 -10 41 -24 84 -32 95 -14 21 -17 93 -5 113 11 16 91 46 165 62 56 11 57
12 57 46 0 27 -4 34 -20 34 -10 0 -43 5 -72 11 -67 15 -108 53 -108 102 l0 34
106 11 c58 6 112 16 121 24 14 11 15 31 10 145 l-7 133 50 0 c36 0 55 -5 69
-19z"/>
<path d="M965 1573 c-110 -13 -174 -37 -153 -58 6 -6 196 23 236 36 67 22 21
35 -83 22z"/>
<path d="M933 1377 c-79 -20 -83 -22 -83 -49 0 -26 3 -28 38 -28 58 0 113 19
144 50 55 55 34 61 -99 27z"/>
<path d="M1749 1250 c-122 -12 -119 -7 -119 -164 l0 -134 111 -7 c61 -4 115
-3 119 1 10 10 35 148 45 252 l7 62 -44 -1 c-23 -1 -77 -5 -119 -9z"/>
</g>
</svg>
